<svg version="1.1" id="Layer_1" xmlns="http://www.w3.org/2000/svg" xmlns:xlink="http://www.w3.org/1999/xlink" x="0px" y="0px"
	 width="100%" viewBox="0 0 800 800" enable-background="new 0 0 800 800" xml:space="preserve">
<path fill="#FFFFFF" opacity="1.000000" stroke="none" 
	d="
M476.000000,801.000000 
	C317.333344,801.000000 159.166672,801.000000 1.000000,801.000000 
	C1.000000,534.333313 1.000000,267.666656 1.000000,1.000000 
	C267.666656,1.000000 534.333313,1.000000 801.000000,1.000000 
	C801.000000,267.666656 801.000000,534.333313 801.000000,801.000000 
	C692.833313,801.000000 584.666687,801.000000 476.000000,801.000000 
M338.085083,138.167221 
	C333.051270,138.237869 328.017487,138.308533 322.071899,138.171265 
	C316.067688,138.202332 310.063477,138.233383 303.237152,138.031555 
	C301.825287,138.093353 300.413391,138.155151 298.069214,138.120560 
	C280.134857,138.674515 261.988953,137.667313 244.304153,140.063248 
	C180.946533,148.646927 135.042374,182.502045 106.272728,239.412888 
	C95.257812,261.202118 89.700500,284.564819 88.982445,309.500519 
	C88.982445,309.500519 89.055130,309.971832 88.918083,310.904388 
	C88.953049,327.603058 88.988007,344.301697 88.910316,361.932129 
	C88.948647,376.955231 88.986969,391.978302 88.910027,407.932678 
	C88.948669,422.622040 88.987312,437.311401 88.908951,452.932007 
	C88.947533,472.288300 88.986122,491.644592 88.908386,511.932159 
	C88.947289,533.288452 88.986191,554.644714 88.905746,576.932007 
	C88.945885,595.621643 88.986023,614.311340 88.903900,633.931580 
	C88.944496,648.287964 88.985092,662.644287 88.899551,677.930908 
	C88.887207,685.576111 88.860146,693.221375 88.866837,700.866577 
	C88.873024,707.943237 91.422523,711.976990 97.166687,714.087463 
	C102.483543,716.040955 107.153702,714.473083 111.581825,709.156860 
	C118.599190,700.732117 125.414825,692.132935 132.613403,683.866760 
	C147.768585,666.463745 166.528534,654.227539 188.728561,645.882019 
	C199.153671,643.568848 209.578766,641.255676 220.770248,639.057617 
	C222.257812,638.858459 223.745377,638.659302 226.098053,638.394043 
	C228.729797,638.307129 231.361542,638.220215 234.923431,638.272949 
	C253.613632,638.225830 272.303833,638.178711 291.923431,638.276611 
	C312.946594,638.229248 333.969727,638.181824 355.922028,638.282593 
	C376.613098,638.232666 397.304138,638.182739 418.923462,638.284546 
	C434.947113,638.232849 450.970795,638.181213 467.922058,638.287415 
	C482.262360,638.234314 496.602631,638.181213 511.702362,638.422119 
	C526.312622,637.995056 541.035400,638.573181 555.511963,636.952209 
	C598.700378,632.116455 635.175293,613.261597 664.936890,581.653137 
	C680.723206,564.887207 692.960266,545.792480 701.090515,523.310242 
	C701.136841,522.812988 701.055115,522.258545 701.248108,521.826843 
	C708.338623,505.965454 711.156433,489.180389 712.268494,471.154877 
	C712.322021,461.101318 712.375610,451.047791 712.701904,440.098053 
	C712.612549,429.745026 712.523254,419.391968 712.708008,408.128510 
	C712.617920,396.751099 712.527832,385.373688 712.709595,373.099518 
	C712.621033,355.742889 712.532471,338.386292 712.718994,320.133240 
	C712.490479,314.757629 712.261963,309.381989 712.125916,303.340637 
	C712.076965,302.897278 712.028015,302.453949 712.069702,301.131226 
	C710.430725,291.728607 708.791748,282.325958 707.151184,272.128693 
	C703.676025,258.167694 698.715576,244.801331 691.227173,231.746933 
	C683.256409,220.461563 675.285645,209.176178 666.996582,197.279358 
	C651.461365,179.378281 632.342957,166.298264 610.754517,155.357040 
	C597.145325,148.861893 583.018372,143.988525 567.409729,141.309738 
	C560.942810,140.531662 554.475952,139.753586 547.123047,138.813782 
	C544.433899,138.761551 541.744690,138.709320 538.335388,138.247742 
	C527.855774,138.191818 517.375916,138.068970 506.896515,138.095535 
	C490.930206,138.136017 474.964203,138.279907 458.081360,138.165878 
	C437.716339,138.231049 417.351318,138.296219 396.071991,138.159836 
	C383.377991,138.226318 370.683960,138.292801 357.072327,138.159500 
	C351.047760,138.232040 345.023193,138.304596 338.085083,138.167221 
z"/>
<path fill="#5CBEFC" opacity="1.000000" stroke="none" 
	d="
M89.022972,361.000366 
	C88.988007,344.301697 88.953049,327.603058 89.142189,310.357544 
	C89.427650,309.712555 89.563606,309.561859 89.537735,309.525146 
	C89.410988,309.345123 89.241135,309.195496 89.086525,309.035126 
	C89.700500,284.564819 95.257812,261.202118 106.272728,239.412888 
	C135.042374,182.502045 180.946533,148.646927 244.304153,140.063248 
	C261.988953,137.667313 280.134857,138.674515 298.666412,138.353424 
	C299.496429,138.791428 299.761383,138.938919 299.781433,139.288300 
	C296.996490,140.042557 294.488495,140.537247 291.596802,141.072540 
	C280.800079,145.120850 270.387146,149.128555 259.656799,153.250916 
	C252.181870,158.446167 244.327194,162.784790 237.990112,168.738678 
	C213.482529,191.764343 200.361801,220.154587 199.987457,254.051239 
	C199.847809,266.695801 199.896835,279.342468 199.498596,291.985107 
	C197.111908,292.174744 194.687012,291.717255 193.130692,292.673462 
	C186.641815,296.660217 180.421249,301.082672 174.089630,305.326477 
	C147.932999,322.857941 121.785011,340.402344 95.585884,357.870056 
	C93.589828,359.200836 91.219383,359.970093 89.022972,361.000366 
z"/>
<path fill="#5C71D8" opacity="1.000000" stroke="none" 
	d="
M712.433899,409.038940 
	C712.523254,419.391968 712.612549,429.745026 712.191833,440.549377 
	C709.206970,441.732910 706.424500,441.970764 704.312256,443.285461 
	C696.434753,448.188721 688.776489,453.444397 681.036987,458.569305 
	C656.438965,474.857361 631.822937,491.118439 607.248779,507.442474 
	C584.192017,522.758606 561.193787,538.162781 538.143860,553.489197 
	C514.820129,568.997620 491.460297,584.451782 468.124298,599.941833 
	C452.942291,610.019470 437.762451,620.100525 422.611420,630.224609 
	C419.839417,632.076843 417.067444,634.060059 417.995209,638.132874 
	C397.304138,638.182739 376.613098,638.232666 355.459412,637.813110 
	C356.181580,635.311401 356.873352,632.557190 358.627808,631.359070 
	C375.469971,619.856995 392.448151,608.551819 409.472687,597.319702 
	C429.957428,583.804565 450.506165,570.386108 471.063873,556.982056 
	C484.787811,548.033752 498.594604,539.212463 512.291626,530.223511 
	C513.180908,529.639954 513.446716,528.106323 514.467285,526.950500 
	C522.961060,526.931885 530.990112,526.977417 539.108276,527.186646 
	C539.461304,527.226135 539.725220,527.101868 540.370605,526.858215 
	C541.893433,526.532715 543.027588,526.267456 544.177063,526.129517 
	C560.618896,524.157166 574.307983,516.393066 584.824097,504.165070 
	C590.589722,497.460876 593.865234,488.615082 598.651123,480.788605 
	C599.930664,480.477539 600.923645,480.259888 601.699463,479.726349 
	C615.891541,469.965942 629.979126,460.051514 644.251038,450.409851 
	C658.810913,440.573700 673.357117,430.692474 688.283447,421.434143 
	C695.942749,416.683289 702.382080,409.227112 712.433899,409.038940 
z"/>
<path fill="#5C62D1" opacity="1.000000" stroke="none" 
	d="
M712.072144,471.980682 
	C711.156433,489.180389 708.338623,505.965454 701.248108,521.826843 
	C701.055115,522.258545 701.136841,522.812988 700.596680,523.731445 
	C696.915649,526.184937 693.696106,528.168457 690.547058,530.258240 
	C678.383545,538.330383 666.247742,546.444336 654.092102,554.528381 
	C616.077148,579.810120 578.052307,605.076904 540.061462,630.394653 
	C538.595642,631.371521 536.584656,632.652222 536.314941,634.073547 
	C535.712402,637.248474 533.762146,637.016846 531.559814,637.006653 
	C526.227539,636.981934 520.892944,636.916565 515.563904,637.051758 
	C514.015503,637.091003 512.482849,637.752075 510.942932,638.128174 
	C496.602631,638.181213 482.262360,638.234314 467.459534,637.796265 
	C466.556549,634.080566 468.081940,632.220764 470.772797,630.462585 
	C485.903961,620.576233 500.878845,610.451111 515.940918,600.458374 
	C539.560486,584.788330 563.208496,569.161133 586.841675,553.511536 
	C607.714844,539.689514 628.596436,525.880249 649.450562,512.029480 
	C661.741821,503.865967 673.887085,495.478058 686.287109,487.484467 
	C694.712341,482.053192 703.465576,477.130676 712.072144,471.980682 
z"/>
<path fill="#5C6AD5" opacity="1.000000" stroke="none" 
	d="
M712.170288,471.567780 
	C703.465576,477.130676 694.712341,482.053192 686.287109,487.484467 
	C673.887085,495.478058 661.741821,503.865967 649.450562,512.029480 
	C628.596436,525.880249 607.714844,539.689514 586.841675,553.511536 
	C563.208496,569.161133 539.560486,584.788330 515.940918,600.458374 
	C500.878845,610.451111 485.903961,620.576233 470.772797,630.462585 
	C468.081940,632.220764 466.556549,634.080566 466.995728,637.717407 
	C450.970795,638.181213 434.947113,638.232849 418.459351,638.208740 
	C417.067444,634.060059 419.839417,632.076843 422.611420,630.224609 
	C437.762451,620.100525 452.942291,610.019470 468.124298,599.941833 
	C491.460297,584.451782 514.820129,568.997620 538.143860,553.489197 
	C561.193787,538.162781 584.192017,522.758606 607.248779,507.442474 
	C631.822937,491.118439 656.438965,474.857361 681.036987,458.569305 
	C688.776489,453.444397 696.434753,448.188721 704.312256,443.285461 
	C706.424500,441.970764 709.206970,441.732910 712.055481,440.997498 
	C712.375610,451.047791 712.322021,461.101318 712.170288,471.567780 
z"/>
<path fill="#5CA2EF" opacity="1.000000" stroke="none" 
	d="
M611.263489,155.856781 
	C632.342957,166.298264 651.461365,179.378281 666.725403,197.617157 
	C664.258789,198.542236 661.722290,198.610168 659.919128,199.794601 
	C632.501343,217.803909 605.159851,235.929764 577.867981,254.129486 
	C575.309998,255.835327 573.206848,258.223175 570.560425,260.169037 
	C561.000916,254.068146 550.708862,251.191360 539.838745,249.282654 
	C538.006042,248.614609 536.295654,248.045639 534.583435,248.040009 
	C515.056152,247.975815 495.528656,247.997559 476.035889,247.649704 
	C477.452515,245.686951 478.558624,243.660690 480.258575,242.517487 
	C499.503723,229.575180 518.807373,216.719070 538.159729,203.937149 
	C562.496460,187.863113 586.892822,171.879456 611.263489,155.856781 
z"/>
<path fill="#5C90E6" opacity="1.000000" stroke="none" 
	d="
M89.025696,677.000671 
	C88.985092,662.644287 88.944496,648.287964 89.329254,633.461060 
	C90.533226,632.758850 91.442619,632.711670 92.070160,632.266785 
	C98.132553,627.969299 104.033920,623.436096 110.196365,619.289917 
	C133.534805,603.587708 156.873245,587.882812 180.365753,572.412903 
	C201.928055,558.213989 223.694290,544.324829 245.338730,530.250061 
	C246.068329,529.775574 246.451599,528.768555 247.212402,527.906250 
	C247.702591,527.614563 247.889435,527.361816 248.324890,526.977173 
	C249.113220,526.954468 249.565643,526.999084 250.315201,527.333618 
	C269.505371,527.731873 288.398376,527.848145 307.291565,527.909424 
	C307.853821,527.911194 308.417938,527.335999 309.379456,526.960205 
	C310.852356,526.931763 311.926910,526.972839 312.993652,527.381714 
	C312.225616,528.716675 311.654266,529.976379 310.676941,530.607239 
	C296.204620,539.948608 281.572327,549.045288 267.188965,558.520386 
	C243.108078,574.383850 219.192047,590.497314 195.180283,606.465881 
	C171.853745,621.978760 148.430298,637.346863 125.176834,652.968201 
	C114.190208,660.348816 103.518158,668.196899 92.649818,675.755859 
	C91.641113,676.457397 90.242981,676.598999 89.025696,677.000671 
z"/>
<path fill="#5C8AE3" opacity="1.000000" stroke="none" 
	d="
M88.962624,677.465820 
	C90.242981,676.598999 91.641113,676.457397 92.649818,675.755859 
	C103.518158,668.196899 114.190208,660.348816 125.176834,652.968201 
	C148.430298,637.346863 171.853745,621.978760 195.180283,606.465881 
	C219.192047,590.497314 243.108078,574.383850 267.188965,558.520386 
	C281.572327,549.045288 296.204620,539.948608 310.676941,530.607239 
	C311.654266,529.976379 312.225616,528.716675 313.328552,527.323975 
	C314.120209,526.943909 314.569092,526.989136 315.226929,527.290405 
	C316.617737,527.375366 317.799561,527.204224 319.358124,526.964905 
	C320.496368,526.941772 321.257874,526.986877 322.248108,527.296387 
	C323.977966,527.384094 325.479065,527.207275 327.396515,526.961792 
	C329.215546,526.938599 330.618164,526.984070 332.315521,527.321899 
	C341.072662,527.744446 349.535126,527.874695 357.940674,528.353760 
	C354.488525,530.668884 350.987122,532.474182 347.716644,534.629822 
	C334.703003,543.207642 321.748962,551.876160 308.795868,560.545471 
	C288.121979,574.382141 267.511902,588.314697 246.789291,602.077942 
	C228.824066,614.009827 210.780365,625.825256 192.671555,637.537842 
	C189.405472,639.650330 187.377136,641.978516 187.999420,646.010254 
	C166.528534,654.227539 147.768585,666.463745 132.613403,683.866760 
	C125.414825,692.132935 118.599190,700.732117 111.581825,709.156860 
	C107.153702,714.473083 102.483543,716.040955 97.166687,714.087463 
	C91.422523,711.976990 88.873024,707.943237 88.866837,700.866577 
	C88.860146,693.221375 88.887207,685.576111 88.962624,677.465820 
z"/>
<path fill="#5CA2EF" opacity="1.000000" stroke="none" 
	d="
M89.025101,576.001099 
	C88.986191,554.644714 88.947289,533.288452 89.335915,511.460602 
	C92.196602,509.176147 94.561653,507.262207 97.075157,505.568542 
	C106.124977,499.470734 115.236740,493.464966 124.303467,487.392120 
	C144.923553,473.580933 165.522125,459.737640 186.149948,445.938019 
	C190.699936,442.894165 195.335022,439.977509 200.003998,437.466217 
	C200.027939,459.954285 199.978806,481.978485 199.565826,504.007324 
	C198.425415,504.251709 197.534866,504.322021 196.889160,504.756348 
	C185.898590,512.148926 174.973160,519.638550 163.964249,527.003479 
	C141.508377,542.026489 119.024361,557.007629 96.511230,571.944702 
	C94.155693,573.507568 91.527046,574.658813 89.025101,576.001099 
z"/>
<path fill="#5C79DC" opacity="1.000000" stroke="none" 
	d="
M514.002563,527.014648 
	C513.446716,528.106323 513.180908,529.639954 512.291626,530.223511 
	C498.594604,539.212463 484.787811,548.033752 471.063873,556.982056 
	C450.506165,570.386108 429.957428,583.804565 409.472687,597.319702 
	C392.448151,608.551819 375.469971,619.856995 358.627808,631.359070 
	C356.873352,632.557190 356.181580,635.311401 354.994812,637.739014 
	C333.969727,638.181824 312.946594,638.229248 291.460266,637.794006 
	C292.126251,635.323303 292.792053,632.720703 294.467590,631.457275 
	C300.550354,626.870789 306.908600,622.637634 313.275940,618.442688 
	C338.238861,601.996460 363.214081,585.568420 388.244843,569.225708 
	C408.229065,556.177917 428.313477,543.283508 448.290497,530.224854 
	C449.180206,529.643311 449.445496,528.106567 450.466553,526.951294 
	C471.955200,526.930115 492.978882,526.972351 514.002563,527.014648 
z"/>
<path fill="#5C98EA" opacity="1.000000" stroke="none" 
	d="
M88.965424,576.466553 
	C91.527046,574.658813 94.155693,573.507568 96.511230,571.944702 
	C119.024361,557.007629 141.508377,542.026489 163.964249,527.003479 
	C174.973160,519.638550 185.898590,512.148926 196.889160,504.756348 
	C197.534866,504.322021 198.425415,504.251709 199.640793,504.470917 
	C200.079575,512.995605 200.079575,521.061340 200.079575,528.832764 
	C210.558975,528.229980 220.303619,527.669434 230.350891,527.385742 
	C236.101120,527.778381 241.548737,527.894043 246.996338,528.009766 
	C246.451599,528.768555 246.068329,529.775574 245.338730,530.250061 
	C223.694290,544.324829 201.928055,558.213989 180.365753,572.412903 
	C156.873245,587.882812 133.534805,603.587708 110.196365,619.289917 
	C104.033920,623.436096 98.132553,627.969299 92.070160,632.266785 
	C91.442619,632.711670 90.533226,632.758850 89.390381,632.995789 
	C88.986023,614.311340 88.945885,595.621643 88.965424,576.466553 
z"/>
<path fill="#54AEF4" opacity="1.000000" stroke="none" 
	d="
M357.989960,138.359283 
	C370.683960,138.292801 383.377991,138.226318 396.534576,138.632050 
	C402.499481,148.294495 398.943665,158.889160 401.432190,168.731567 
	C402.825562,174.242386 400.476288,180.672058 402.784576,186.982208 
	C405.740509,195.062775 407.129913,203.713455 409.289551,212.093933 
	C409.460022,212.755341 410.347382,213.674973 410.947479,213.711029 
	C414.933990,213.950562 415.459747,216.270203 414.356506,219.426620 
	C418.814545,221.170731 422.928192,222.780106 427.968689,224.752075 
	C428.337738,225.618896 429.220306,227.691910 430.086243,229.725922 
	C433.996155,228.390518 437.497467,227.194656 440.999268,226.332275 
	C441.000244,227.110367 441.000732,227.554993 440.995483,228.377716 
	C439.382294,232.377747 437.858459,236.039902 436.142731,239.609848 
	C434.554108,242.915390 432.360291,245.191696 428.132385,245.186295 
	C426.424835,245.184097 424.714935,247.004379 422.536743,247.997620 
	C401.039642,248.005157 380.011871,248.010361 358.518280,248.013885 
	C353.035370,248.007401 348.018280,248.002625 343.044556,247.626282 
	C344.031006,243.980667 345.508514,240.754349 345.806061,237.422623 
	C346.425781,230.483978 346.200684,223.472092 346.751068,216.524231 
	C347.113129,211.953018 348.300995,207.452713 348.982513,202.900208 
	C350.516571,192.652649 352.009674,182.398499 353.437531,172.135635 
	C355.003021,160.883530 356.476440,149.618622 357.989960,138.359283 
z"/>
<path fill="#5CACF3" opacity="1.000000" stroke="none" 
	d="
M199.930923,437.002319 
	C195.335022,439.977509 190.699936,442.894165 186.149948,445.938019 
	C165.522125,459.737640 144.923553,473.580933 124.303467,487.392120 
	C115.236740,493.464966 106.124977,499.470734 97.075157,505.568542 
	C94.561653,507.262207 92.196602,509.176147 89.394073,510.994965 
	C88.986122,491.644592 88.947533,472.288300 89.338318,452.460999 
	C91.151131,451.477081 92.693710,451.205139 93.892792,450.413177 
	C103.284103,444.210175 112.590942,437.879517 121.959045,431.641113 
	C143.637222,417.205170 165.310028,402.760803 187.047592,388.414734 
	C191.135727,385.716736 195.514526,383.459198 199.746155,381.417664 
	C199.799042,400.225403 199.864990,418.613861 199.930923,437.002319 
z"/>
<path fill="#5C81DF" opacity="1.000000" stroke="none" 
	d="
M450.001648,527.014709 
	C449.445496,528.106567 449.180206,529.643311 448.290497,530.224854 
	C428.313477,543.283508 408.229065,556.177917 388.244843,569.225708 
	C363.214081,585.568420 338.238861,601.996460 313.275940,618.442688 
	C306.908600,622.637634 300.550354,626.870789 294.467590,631.457275 
	C292.792053,632.720703 292.126251,635.323303 290.995575,637.721497 
	C272.303833,638.178711 253.613632,638.225830 234.460342,637.807129 
	C235.257385,635.411621 236.080887,632.830627 237.842819,631.649536 
	C266.203705,612.638367 294.651245,593.755676 323.147827,574.947937 
	C345.688324,560.071167 368.335419,545.355896 390.872650,530.474243 
	C391.897400,529.797546 392.305878,528.187561 393.466522,526.950073 
	C412.621643,526.930237 431.311646,526.972473 450.001648,527.014709 
z"/>
<path fill="#5CACF3" opacity="1.000000" stroke="none" 
	d="
M423.006104,247.995300 
	C424.714935,247.004379 426.424835,245.184097 428.132385,245.186295 
	C432.360291,245.191696 434.554108,242.915390 436.142731,239.609848 
	C437.858459,236.039902 439.382294,232.377747 441.365051,228.373260 
	C442.654846,227.663025 443.710175,227.527512 444.461609,226.977112 
	C450.200409,222.773666 455.710022,218.236053 461.609436,214.277069 
	C480.037048,201.910599 498.586945,189.725876 517.123962,177.523087 
	C533.444946,166.779083 549.832031,156.135391 566.110840,145.328232 
	C567.114258,144.662125 567.424622,142.952164 568.057495,141.727875 
	C583.018372,143.988525 597.145325,148.861893 611.009033,155.606903 
	C586.892822,171.879456 562.496460,187.863113 538.159729,203.937149 
	C518.807373,216.719070 499.503723,229.575180 480.258575,242.517487 
	C478.558624,243.660690 477.452515,245.686951 475.567139,247.650818 
	C457.711151,247.997482 440.358612,247.996399 423.006104,247.995300 
z"/>
<path fill="#5C7EDE" opacity="1.000000" stroke="none" 
	d="
M712.443970,321.029663 
	C712.532471,338.386292 712.621033,355.742889 712.181152,373.550476 
	C706.781921,373.109802 703.065613,375.641663 699.325500,378.136475 
	C669.287964,398.172729 639.257263,418.219299 609.178467,438.193481 
	C607.321350,439.426727 605.075012,440.073975 603.006714,440.525940 
	C603.004883,423.038666 603.006104,406.019318 603.376953,388.995850 
	C605.066589,388.377380 606.481934,387.910095 607.691345,387.125397 
	C617.124023,381.004974 626.562073,374.890747 635.913635,368.647461 
	C658.060120,353.861938 680.100159,338.915405 702.352478,324.291412 
	C705.200684,322.419617 709.055420,322.079407 712.443970,321.029663 
z"/>
<path fill="#5C88E3" opacity="1.000000" stroke="none" 
	d="
M712.581421,320.581451 
	C709.055420,322.079407 705.200684,322.419617 702.352478,324.291412 
	C680.100159,338.915405 658.060120,353.861938 635.913635,368.647461 
	C626.562073,374.890747 617.124023,381.004974 607.691345,387.125397 
	C606.481934,387.910095 605.066589,388.377380 603.374023,388.527191 
	C603.000977,371.710083 603.000488,355.357483 603.355469,338.968506 
	C612.625000,333.207581 621.592224,327.563934 630.442322,321.742249 
	C651.113342,308.144653 671.677063,294.383057 692.404907,280.873108 
	C697.067383,277.834229 702.223816,275.553192 707.152832,272.923279 
	C708.791748,282.325958 710.430725,291.728607 711.799072,301.718567 
	C711.696838,302.872711 711.865173,303.439545 712.033508,304.006378 
	C712.261963,309.381989 712.490479,314.757629 712.581421,320.581451 
z"/>
<path fill="#5CB7F9" opacity="1.000000" stroke="none" 
	d="
M88.966644,361.466248 
	C91.219383,359.970093 93.589828,359.200836 95.585884,357.870056 
	C121.785011,340.402344 147.932999,322.857941 174.089630,305.326477 
	C180.421249,301.082672 186.641815,296.660217 193.130692,292.673462 
	C194.687012,291.717255 197.111908,292.174744 199.550293,292.448730 
	C199.979218,297.273285 199.995209,301.631165 199.727402,306.247620 
	C199.652435,308.687225 199.861282,310.868256 200.108307,313.476685 
	C199.813873,317.668701 199.269058,321.430267 199.212997,325.199036 
	C199.164444,328.462372 199.670364,331.733887 199.588013,335.039856 
	C196.857208,336.830109 194.532852,338.677063 192.071548,340.318695 
	C178.438339,349.411804 164.754745,358.429352 151.121078,367.521790 
	C134.592072,378.545166 118.153770,389.705994 101.541924,400.602631 
	C97.646652,403.157715 93.211868,404.890381 89.025299,407.001404 
	C88.986969,391.978302 88.948647,376.955231 88.966644,361.466248 
z"/>
<path fill="#5C98EA" opacity="1.000000" stroke="none" 
	d="
M570.892578,260.294373 
	C573.206848,258.223175 575.309998,255.835327 577.867981,254.129486 
	C605.159851,235.929764 632.501343,217.803909 659.919128,199.794601 
	C661.722290,198.610168 664.258789,198.542236 666.884521,197.922882 
	C675.285645,209.176178 683.256409,220.461563 691.053345,232.437164 
	C683.288940,238.064453 675.684875,242.981033 668.110291,247.942535 
	C646.687317,261.974945 625.276611,276.025879 603.860718,290.069122 
	C601.832031,291.399414 599.801575,292.727051 597.531006,293.813599 
	C592.150513,279.575897 582.921753,268.824402 570.892578,260.294373 
z"/>
<path fill="#5CB1F6" opacity="1.000000" stroke="none" 
	d="
M88.967667,407.467041 
	C93.211868,404.890381 97.646652,403.157715 101.541924,400.602631 
	C118.153770,389.705994 134.592072,378.545166 151.121078,367.521790 
	C164.754745,358.429352 178.438339,349.411804 192.071548,340.318695 
	C194.532852,338.677063 196.857208,336.830109 199.659821,335.503967 
	C199.969635,350.952789 199.864410,365.975586 199.759201,380.998413 
	C195.514526,383.459198 191.135727,385.716736 187.047592,388.414734 
	C165.310028,402.760803 143.637222,417.205170 121.959045,431.641113 
	C112.590942,437.879517 103.284103,444.210175 93.892792,450.413177 
	C92.693710,451.205139 91.151131,451.477081 89.396820,451.995361 
	C88.987312,437.311401 88.948669,422.622040 88.967667,407.467041 
z"/>
<path fill="#5C90E6" opacity="1.000000" stroke="none" 
	d="
M597.771973,294.055908 
	C599.801575,292.727051 601.832031,291.399414 603.860718,290.069122 
	C625.276611,276.025879 646.687317,261.974945 668.110291,247.942535 
	C675.684875,242.981033 683.288940,238.064453 691.069580,232.780716 
	C698.715576,244.801331 703.676025,258.167694 707.151978,272.526001 
	C702.223816,275.553192 697.067383,277.834229 692.404907,280.873108 
	C671.677063,294.383057 651.113342,308.144653 630.442322,321.742249 
	C621.592224,327.563934 612.625000,333.207581 603.352234,338.499298 
	C602.990784,331.157349 603.066406,324.246582 602.921204,317.340454 
	C602.891174,315.915436 602.038452,314.507690 601.388062,312.668274 
	C600.064697,306.181702 598.918335,300.118805 597.771973,294.055908 
z"/>
<path fill="#5CB1F6" opacity="1.000000" stroke="none" 
	d="
M567.733582,141.518799 
	C567.424622,142.952164 567.114258,144.662125 566.110840,145.328232 
	C549.832031,156.135391 533.444946,166.779083 517.123962,177.523087 
	C498.586945,189.725876 480.037048,201.910599 461.609436,214.277069 
	C455.710022,218.236053 450.200409,222.773666 444.461609,226.977112 
	C443.710175,227.527512 442.654846,227.663025 441.370728,227.995178 
	C441.000732,227.554993 441.000244,227.110367 441.005920,225.946213 
	C444.939880,217.081177 448.848267,208.926224 452.806305,200.795456 
	C454.132904,198.070251 456.716461,195.440781 456.798737,192.709518 
	C457.344543,174.590652 461.881866,156.623566 458.998047,138.379898 
	C474.964203,138.279907 490.930206,138.136017 506.896515,138.095535 
	C517.375916,138.068970 527.855774,138.191818 538.896484,138.812668 
	C542.308044,139.243561 545.158508,139.109543 548.009033,138.975525 
	C554.475952,139.753586 560.942810,140.531662 567.733582,141.518799 
z"/>
<path fill="#5D5CCE" opacity="1.000000" stroke="none" 
	d="
M511.322632,638.275146 
	C512.482849,637.752075 514.015503,637.091003 515.563904,637.051758 
	C520.892944,636.916565 526.227539,636.981934 531.559814,637.006653 
	C533.762146,637.016846 535.712402,637.248474 536.314941,634.073547 
	C536.584656,632.652222 538.595642,631.371521 540.061462,630.394653 
	C578.052307,605.076904 616.077148,579.810120 654.092102,554.528381 
	C666.247742,546.444336 678.383545,538.330383 690.547058,530.258240 
	C693.696106,528.168457 696.915649,526.184937 700.438110,524.080811 
	C692.960266,545.792480 680.723206,564.887207 664.936890,581.653137 
	C635.175293,613.261597 598.700378,632.116455 555.511963,636.952209 
	C541.035400,638.573181 526.312622,637.995056 511.322632,638.275146 
z"/>
<path fill="#56B2F6" opacity="1.000000" stroke="none" 
	d="
M458.539703,138.272888 
	C461.881866,156.623566 457.344543,174.590652 456.798737,192.709518 
	C456.716461,195.440781 454.132904,198.070251 452.806305,200.795456 
	C448.848267,208.926224 444.939880,217.081177 441.005432,225.612732 
	C437.497467,227.194656 433.996155,228.390518 430.086243,229.725922 
	C429.220306,227.691910 428.337738,225.618896 427.968689,224.752075 
	C422.928192,222.780106 418.814545,221.170731 414.356506,219.426620 
	C415.459747,216.270203 414.933990,213.950562 410.947479,213.711029 
	C410.347382,213.674973 409.460022,212.755341 409.289551,212.093933 
	C407.129913,203.713455 405.740509,195.062775 402.784576,186.982208 
	C400.476288,180.672058 402.825562,174.242386 401.432190,168.731567 
	C398.943665,158.889160 402.499481,148.294495 396.991730,138.732834 
	C417.351318,138.296219 437.716339,138.231049 458.539703,138.272888 
z"/>
<path fill="#5C88E3" opacity="1.000000" stroke="none" 
	d="
M393.001404,527.012268 
	C392.305878,528.187561 391.897400,529.797546 390.872650,530.474243 
	C368.335419,545.355896 345.688324,560.071167 323.147827,574.947937 
	C294.651245,593.755676 266.203705,612.638367 237.842819,631.649536 
	C236.080887,632.830627 235.257385,635.411621 233.995270,637.737305 
	C231.361542,638.220215 228.729797,638.307129 225.454529,638.090088 
	C223.208618,638.171631 221.606247,638.557068 220.003876,638.942505 
	C209.578766,641.255676 199.153671,643.568848 188.363983,645.946167 
	C187.377136,641.978516 189.405472,639.650330 192.671555,637.537842 
	C210.780365,625.825256 228.824066,614.009827 246.789291,602.077942 
	C267.511902,588.314697 288.121979,574.382141 308.795868,560.545471 
	C321.748962,551.876160 334.703003,543.207642 347.716644,534.629822 
	C350.987122,532.474182 354.488525,530.668884 358.326416,528.350464 
	C360.171661,527.673889 361.574341,527.349426 363.404968,526.957153 
	C365.562561,526.934143 367.292236,526.978943 369.162537,527.246094 
	C369.861420,527.320007 370.419678,527.171692 371.406006,526.955688 
	C373.564117,526.932678 375.294159,526.977295 377.230896,527.279846 
	C378.616760,527.365173 379.795929,527.192566 381.433289,526.952026 
	C385.594757,526.926819 389.298096,526.969543 393.001404,527.012268 
z"/>
<path fill="#5C76DA" opacity="1.000000" stroke="none" 
	d="
M603.009766,440.993896 
	C605.075012,440.073975 607.321350,439.426727 609.178467,438.193481 
	C639.257263,418.219299 669.287964,398.172729 699.325500,378.136475 
	C703.065613,375.641663 706.781921,373.109802 712.045288,373.998840 
	C712.527832,385.373688 712.617920,396.751099 712.570923,408.583740 
	C702.382080,409.227112 695.942749,416.683289 688.283447,421.434143 
	C673.357117,430.692474 658.810913,440.573700 644.251038,450.409851 
	C629.979126,460.051514 615.891541,469.965942 601.699463,479.726349 
	C600.923645,480.259888 599.930664,480.477539 598.755615,480.390015 
	C599.469910,474.609528 600.467285,469.281250 601.816040,463.819519 
	C602.448242,456.122009 602.729004,448.557953 603.009766,440.993896 
z"/>
<path fill="#4C94E3" opacity="1.000000" stroke="none" 
	d="
M343.001221,247.997849 
	C348.018280,248.002625 353.035370,248.007401 358.517975,248.249786 
	C358.975159,248.800842 358.964325,249.114227 358.503906,249.555603 
	C342.789032,249.726654 327.521210,249.815689 312.253510,249.800278 
	C295.497559,249.783371 278.741699,249.670227 262.048401,249.260101 
	C264.694580,240.907532 267.539001,232.967087 269.811279,224.866150 
	C275.926971,203.063187 281.850403,181.205704 287.733063,159.338364 
	C289.359375,153.292847 290.575928,147.137100 291.980530,141.031937 
	C294.488495,140.537247 296.996490,140.042557 300.132660,139.279694 
	C301.860321,138.762497 302.959808,138.513474 304.059265,138.264450 
	C310.063477,138.233383 316.067688,138.202332 322.532501,138.676239 
	C320.884338,147.321304 318.799561,155.467682 316.660889,163.599899 
	C313.803864,174.463852 310.655182,185.258133 308.088348,196.189529 
	C304.998322,209.348816 302.379761,222.618988 299.574036,235.844742 
	C298.761505,239.674881 298.007202,243.517380 297.095337,247.996948 
	C304.782623,247.996948 311.890717,247.996948 319.467499,247.998413 
	C327.624542,247.999222 335.312897,247.998535 343.001221,247.997849 
z"/>
<path fill="#4FA3ED" opacity="1.000000" stroke="none" 
	d="
M343.044556,247.626282 
	C335.312897,247.998535 327.624542,247.999222 319.475281,247.598846 
	C319.830200,242.834106 320.582184,238.457260 321.475403,234.109436 
	C323.266113,225.393112 325.289581,216.721939 326.935852,207.979202 
	C329.861328,192.442963 332.630035,176.876526 335.358795,161.304230 
	C336.694244,153.683273 337.792816,146.020813 338.998596,138.377136 
	C345.023193,138.304596 351.047760,138.232040 357.531128,138.259399 
	C356.476440,149.618622 355.003021,160.883530 353.437531,172.135635 
	C352.009674,182.398499 350.516571,192.652649 348.982513,202.900208 
	C348.300995,207.452713 347.113129,211.953018 346.751068,216.524231 
	C346.200684,223.472092 346.425781,230.483978 345.806061,237.422623 
	C345.508514,240.754349 344.031006,243.980667 343.044556,247.626282 
z"/>
<path fill="#4D9CE8" opacity="1.000000" stroke="none" 
	d="
M338.541840,138.272186 
	C337.792816,146.020813 336.694244,153.683273 335.358795,161.304230 
	C332.630035,176.876526 329.861328,192.442963 326.935852,207.979202 
	C325.289581,216.721939 323.266113,225.393112 321.475403,234.109436 
	C320.582184,238.457260 319.830200,242.834106 319.006531,247.597382 
	C311.890717,247.996948 304.782623,247.996948 297.095337,247.996948 
	C298.007202,243.517380 298.761505,239.674881 299.574036,235.844742 
	C302.379761,222.618988 304.998322,209.348816 308.088348,196.189529 
	C310.655182,185.258133 313.803864,174.463852 316.660889,163.599899 
	C318.799561,155.467682 320.884338,147.321304 322.988403,138.780212 
	C328.017487,138.308533 333.051270,138.237869 338.541840,138.272186 
z"/>
<path fill="#5C81DF" opacity="1.000000" stroke="none" 
	d="
M220.387054,639.000061 
	C221.606247,638.557068 223.208618,638.171631 225.021973,638.123169 
	C223.745377,638.659302 222.257812,638.858459 220.387054,639.000061 
z"/>
<path fill="#56B2F6" opacity="1.000000" stroke="none" 
	d="
M547.566040,138.894653 
	C545.158508,139.109543 542.308044,139.243561 539.256531,139.017334 
	C541.744690,138.709320 544.433899,138.761551 547.566040,138.894653 
z"/>
<path fill="#90BFF3" opacity="1.000000" stroke="none" 
	d="
M303.648193,138.148010 
	C302.959808,138.513474 301.860321,138.762497 300.409668,139.020142 
	C299.761383,138.938919 299.496429,138.791428 299.132568,138.401611 
	C300.413391,138.155151 301.825287,138.093353 303.648193,138.148010 
z"/>
<path fill="#5C7EDE" opacity="1.000000" stroke="none" 
	d="
M712.079712,303.673523 
	C711.865173,303.439545 711.696838,302.872711 711.753784,302.158234 
	C712.028015,302.453949 712.076965,302.897278 712.079712,303.673523 
z"/>
<path fill="#54AEF4" opacity="1.000000" stroke="none" 
	d="
M89.034485,309.267822 
	C89.241135,309.195496 89.410988,309.345123 89.537735,309.525146 
	C89.563606,309.561859 89.427650,309.712555 89.210709,309.891296 
	C89.055130,309.971832 88.982445,309.500519 89.034485,309.267822 
z"/>
<path fill="#486ACA" opacity="1.000000" stroke="none" 
	d="
M200.011200,305.989044 
	C199.995209,301.631165 199.979218,297.273285 199.911530,292.451782 
	C199.896835,279.342468 199.847809,266.695801 199.987457,254.051239 
	C200.361801,220.154587 213.482529,191.764343 237.990112,168.738678 
	C244.327194,162.784790 252.181870,158.446167 259.662872,153.653992 
	C258.530243,159.862885 257.319122,165.856644 255.573547,171.690475 
	C249.646210,191.499924 243.306534,211.188477 237.583298,231.055420 
	C234.853134,240.532593 233.157333,250.307709 230.765625,260.196747 
	C214.439178,271.608612 204.410065,286.719452 200.659576,306.029266 
	C200.444290,306.004608 200.011200,305.989044 200.011200,305.989044 
z"/>
<path fill="#497AD4" opacity="1.000000" stroke="none" 
	d="
M230.993011,259.947876 
	C233.157333,250.307709 234.853134,240.532593 237.583298,231.055420 
	C243.306534,211.188477 249.646210,191.499924 255.573547,171.690475 
	C257.319122,165.856644 258.530243,159.862885 259.980225,153.539337 
	C270.387146,149.128555 280.800079,145.120850 291.596802,141.072540 
	C290.575928,147.137100 289.359375,153.292847 287.733063,159.338364 
	C281.850403,181.205704 275.926971,203.063187 269.811279,224.866150 
	C267.539001,232.967087 264.694580,240.907532 261.638245,249.402527 
	C250.266663,250.716339 240.401917,254.648804 230.993011,259.947876 
z"/>
<path fill="#FEFFFF" opacity="1.000000" stroke="none" 
	d="
M230.765625,260.196747 
	C240.401917,254.648804 250.266663,250.716339 261.575592,249.741440 
	C278.741699,249.670227 295.497559,249.783371 312.253510,249.800278 
	C327.521210,249.815689 342.789032,249.726654 358.958008,249.701721 
	C411.248291,249.751465 462.637390,249.791763 514.026489,249.806412 
	C522.671082,249.808884 531.315674,249.700516 539.960266,249.643372 
	C550.708862,251.191360 561.000916,254.068146 570.560425,260.169037 
	C582.921753,268.824402 592.150513,279.575897 597.531006,293.813599 
	C598.918335,300.118805 600.064697,306.181702 601.294739,313.120728 
	C601.346008,351.488983 601.296082,388.981049 601.291260,426.473114 
	C601.289612,438.966400 601.403564,451.459717 601.464722,463.953003 
	C600.467285,469.281250 599.469910,474.609528 598.368042,480.336395 
	C593.865234,488.615082 590.589722,497.460876 584.824097,504.165070 
	C574.307983,516.393066 560.618896,524.157166 544.177063,526.129517 
	C543.027588,526.267456 541.893433,526.532715 540.125977,526.821045 
	C539.499756,526.903320 539.019165,527.022888 539.019165,527.022888 
	C530.990112,526.977417 522.961060,526.931885 514.467285,526.950500 
	C492.978882,526.972351 471.955200,526.930115 450.466583,526.951294 
	C431.311646,526.972473 412.621643,526.930237 393.466522,526.950073 
	C389.298096,526.969543 385.594757,526.926819 381.041168,526.891479 
	C379.135315,526.939819 378.079773,526.980896 377.024200,527.021912 
	C375.294159,526.977295 373.564117,526.932678 371.081848,526.897339 
	C369.893707,526.945679 369.457825,526.984741 369.021912,527.023804 
	C367.292236,526.978943 365.562561,526.934143 362.942017,526.895386 
	C352.041046,526.944214 342.030945,526.986877 332.020813,527.029541 
	C330.618164,526.984070 329.215546,526.938599 326.986267,526.900391 
	C324.779541,526.949158 323.399445,526.990540 322.019348,527.031982 
	C321.257874,526.986877 320.496368,526.941772 318.964661,526.903442 
	C317.135620,526.951660 316.076782,526.993042 315.017944,527.034424 
	C314.569092,526.989136 314.120209,526.943909 313.336426,526.956299 
	C311.926910,526.972839 310.852356,526.931763 308.915802,526.900269 
	C288.708557,526.954407 269.363312,526.999023 250.018051,527.043640 
	C249.565643,526.999084 249.113220,526.954468 247.861221,526.915649 
	C241.390503,526.983887 235.719391,527.046326 230.048264,527.108887 
	C220.303619,527.669434 210.558975,528.229980 200.079575,528.832764 
	C200.079575,521.061340 200.079575,512.995605 200.004608,504.466248 
	C199.978806,481.978485 200.027939,459.954285 200.003998,437.466217 
	C199.864990,418.613861 199.799042,400.225403 199.746155,381.417664 
	C199.864410,365.975586 199.969635,350.952789 200.003036,335.465881 
	C199.670364,331.733887 199.164444,328.462372 199.212997,325.199036 
	C199.269058,321.430267 199.813873,317.668701 200.289886,313.232239 
	C200.580490,310.391632 200.727676,308.222778 200.874847,306.053925 
	C204.410065,286.719452 214.439178,271.608612 230.765625,260.196747 
M367.382263,378.235382 
	C367.246613,378.826080 367.110962,379.416748 366.637573,380.698242 
	C366.367798,384.143951 366.098022,387.589630 365.741699,391.881561 
	C366.424103,394.945740 367.106537,398.009949 367.840057,401.801514 
	C369.143707,404.229736 370.447357,406.657959 371.882629,409.769867 
	C373.905609,411.878632 375.928558,413.987366 378.295410,416.668121 
	C380.839966,418.155670 383.384521,419.643188 386.407471,421.656433 
	C399.115295,427.085815 411.267914,425.831085 422.136963,417.482086 
	C429.962158,411.471161 435.774597,403.835541 435.026733,392.116394 
	C435.001068,389.412750 434.975403,386.709106 435.183411,383.228424 
	C434.423401,380.715912 433.663391,378.203400 432.782562,374.947083 
	C431.229279,372.627808 429.675995,370.308533 428.104614,367.286621 
	C425.465057,365.158447 422.825531,363.030304 419.988281,360.233002 
	C417.007324,358.783722 414.026337,357.334442 410.629395,355.503845 
	C410.085419,355.430603 409.541412,355.357361 408.366364,355.033752 
	C407.916870,354.999725 407.467346,354.965698 406.310883,354.535217 
	C404.165436,354.372253 402.016144,354.029419 399.875153,354.075226 
	C384.874756,354.395874 370.963623,364.767548 367.858246,377.963654 
	C367.858246,377.963654 367.891846,377.880402 367.382263,378.235382 
M331.080811,399.243530 
	C331.344086,396.164764 331.607391,393.086029 332.019958,389.137268 
	C331.354309,385.089233 330.688629,381.041199 329.990021,376.283813 
	C328.607300,373.859161 327.224579,371.434540 325.641510,368.387817 
	C322.881744,365.858978 320.121948,363.330170 316.948883,360.225952 
	C313.966339,358.815826 310.983765,357.405701 307.404907,355.526947 
	C306.119751,355.206085 304.847534,354.815460 303.547516,354.574890 
	C285.969971,351.322510 267.594879,362.607391 263.353455,379.531921 
	C262.957428,383.692749 262.561401,387.853577 262.068909,392.795990 
	C262.903625,395.894012 263.738342,398.992065 264.702881,402.823547 
	C266.644470,405.938385 268.586090,409.053253 270.764465,412.834869 
	C273.812225,415.283325 276.860016,417.731750 280.306091,420.764313 
	C282.837372,421.580933 285.368652,422.397552 288.532471,423.630646 
	C307.489136,428.047699 325.073853,418.207916 331.080811,399.243530 
M483.268005,417.755707 
	C486.152008,419.233337 489.036011,420.710968 492.479584,422.647736 
	C514.377502,430.362427 538.080566,415.289520 539.424377,392.299042 
	C539.263428,389.534546 539.102417,386.770020 539.017090,383.237274 
	C538.083496,380.635986 537.149841,378.034729 536.238708,374.751160 
	C534.539795,372.302856 532.840820,369.854584 531.122009,366.755707 
	C528.789429,364.676392 526.456909,362.597076 523.738464,360.009033 
	C520.826660,358.669434 517.914795,357.329834 514.409241,355.518005 
	C494.224609,350.462799 474.560028,361.388611 470.194611,380.499176 
	C469.919861,384.674744 469.645111,388.850281 469.277710,393.764587 
	C470.062347,396.548981 470.846954,399.333374 471.748962,402.842407 
	C473.454651,405.633606 475.160339,408.424805 477.058929,411.842468 
	C479.003754,413.630280 480.948578,415.418091 483.268005,417.755707 
z"/>
<path fill="#497AD4" opacity="1.000000" stroke="none" 
	d="
M539.108276,527.186646 
	C539.019165,527.022888 539.499756,526.903320 539.744385,526.940491 
	C539.725220,527.101868 539.461304,527.226135 539.108276,527.186646 
z"/>
<path fill="#4FA3ED" opacity="1.000000" stroke="none" 
	d="
M539.838745,249.282654 
	C531.315674,249.700516 522.671082,249.808884 514.026489,249.806412 
	C462.637390,249.791763 411.248291,249.751465 359.405090,249.573669 
	C358.964325,249.114227 358.975159,248.800842 358.983826,248.251480 
	C380.011871,248.010361 401.039642,248.005157 422.536743,247.997620 
	C440.358612,247.996399 457.711151,247.997482 475.532440,247.997467 
	C495.528656,247.997559 515.056152,247.975815 534.583435,248.040009 
	C536.295654,248.045639 538.006042,248.614609 539.838745,249.282654 
z"/>
<path fill="#4C94E3" opacity="1.000000" stroke="none" 
	d="
M250.315201,527.333618 
	C269.363312,526.999023 288.708557,526.954407 308.517517,526.969849 
	C308.417938,527.335999 307.853821,527.911194 307.291565,527.909424 
	C288.398376,527.848145 269.505371,527.731873 250.315201,527.333618 
z"/>
<path fill="#4C94E3" opacity="1.000000" stroke="none" 
	d="
M230.350891,527.385742 
	C235.719391,527.046326 241.390503,526.983887 247.525299,526.982910 
	C247.889435,527.361816 247.702591,527.614563 247.212402,527.906250 
	C241.548737,527.894043 236.101120,527.778381 230.350891,527.385742 
z"/>
<path fill="#4C94E3" opacity="1.000000" stroke="none" 
	d="
M332.315521,527.321899 
	C342.030945,526.986877 352.041046,526.944214 362.514099,526.963257 
	C361.574341,527.349426 360.171661,527.673889 358.383270,528.001587 
	C349.535126,527.874695 341.072662,527.744446 332.315521,527.321899 
z"/>
<path fill="#4C94E3" opacity="1.000000" stroke="none" 
	d="
M322.248108,527.296448 
	C323.399445,526.990540 324.779541,526.949158 326.569885,526.969116 
	C325.479065,527.207275 323.977966,527.384094 322.248108,527.296448 
z"/>
<path fill="#4C94E3" opacity="1.000000" stroke="none" 
	d="
M315.226929,527.290466 
	C316.076782,526.993042 317.135620,526.951660 318.587891,526.971680 
	C317.799561,527.204224 316.617737,527.375366 315.226929,527.290466 
z"/>
<path fill="#497AD4" opacity="1.000000" stroke="none" 
	d="
M601.816101,463.819519 
	C601.403564,451.459717 601.289612,438.966400 601.291260,426.473114 
	C601.296082,388.981049 601.346008,351.488983 601.471680,313.544434 
	C602.038452,314.507690 602.891174,315.915436 602.921204,317.340454 
	C603.066406,324.246582 602.990784,331.157349 602.996704,338.535675 
	C603.000488,355.357483 603.000977,371.710083 603.004395,388.531342 
	C603.006104,406.019318 603.004883,423.038666 603.006714,440.525940 
	C602.729004,448.557953 602.448242,456.122009 601.816101,463.819519 
z"/>
<path fill="#5CACF3" opacity="1.000000" stroke="none" 
	d="
M200.659576,306.029266 
	C200.727676,308.222778 200.580490,310.391632 200.251709,312.804901 
	C199.861282,310.868256 199.652435,308.687225 199.727386,306.247620 
	C200.011200,305.989044 200.444290,306.004608 200.659576,306.029266 
z"/>
<path fill="#4C94E3" opacity="1.000000" stroke="none" 
	d="
M377.230896,527.279846 
	C378.079773,526.980896 379.135315,526.939819 380.583008,526.959412 
	C379.795929,527.192566 378.616760,527.365173 377.230896,527.279846 
z"/>
<path fill="#4C94E3" opacity="1.000000" stroke="none" 
	d="
M369.162537,527.246094 
	C369.457825,526.984741 369.893707,526.945679 370.653778,526.964966 
	C370.419678,527.171692 369.861420,527.320007 369.162537,527.246094 
z"/>
<path fill="#5C88E3" opacity="1.000000" stroke="none" 
	d="
M270.527679,412.168091 
	C268.586090,409.053253 266.644470,405.938385 265.049316,402.431396 
	C266.505585,401.732819 267.740967,401.644104 268.706482,401.087402 
	C284.377502,392.052185 299.989380,382.914215 315.679230,373.911987 
	C318.933105,372.044983 322.447479,370.632080 325.841827,369.009888 
	C327.224579,371.434540 328.607300,373.859161 329.725433,376.828583 
	C328.439575,378.186920 327.501526,379.143646 326.384674,379.792755 
	C307.778931,390.607391 289.150787,401.383423 270.527679,412.168091 
z"/>
<path fill="#5D5CCE" opacity="1.000000" stroke="none" 
	d="
M434.885101,393.007935 
	C435.774597,403.835541 429.962158,411.471161 422.136963,417.482086 
	C411.267914,425.831085 399.115295,427.085815 386.356232,421.106079 
	C398.340881,413.307800 410.317688,405.958740 422.446594,398.869965 
	C426.388336,396.566193 430.727661,394.942627 434.885101,393.007935 
z"/>
<path fill="#5C98EA" opacity="1.000000" stroke="none" 
	d="
M325.741669,368.698853 
	C322.447479,370.632080 318.933105,372.044983 315.679230,373.911987 
	C299.989380,382.914215 284.377502,392.052185 268.706482,401.087402 
	C267.740967,401.644104 266.505585,401.732819 264.984436,402.064667 
	C263.738342,398.992065 262.903625,395.894012 262.481201,392.395081 
	C266.275818,390.323914 269.771362,388.847626 273.021088,386.950256 
	C287.839203,378.298615 302.588257,369.528748 317.362152,360.801361 
	C320.121948,363.330170 322.881744,365.858978 325.741669,368.698853 
z"/>
<path fill="#5C76DA" opacity="1.000000" stroke="none" 
	d="
M270.646057,412.501465 
	C289.150787,401.383423 307.778931,390.607391 326.384674,379.792755 
	C327.501526,379.143646 328.439575,378.186920 329.741913,377.183258 
	C330.688629,381.041199 331.354309,385.089233 331.561096,389.569092 
	C329.234192,390.589325 327.192017,390.870544 325.525848,391.815063 
	C313.001373,398.915405 300.490814,406.045380 288.120575,413.409119 
	C285.107208,415.202881 282.630981,417.898956 279.907806,420.180176 
	C276.860016,417.731750 273.812225,415.283325 270.646057,412.501465 
z"/>
<path fill="#5D5CCE" opacity="1.000000" stroke="none" 
	d="
M539.112427,392.993683 
	C538.080566,415.289520 514.377502,430.362427 492.248108,422.056458 
	C493.589996,419.857544 494.925690,417.868530 496.780548,416.712555 
	C502.811951,412.953583 508.981781,409.406738 515.194458,405.951141 
	C523.118103,401.543854 531.135498,397.305084 539.112427,392.993683 
z"/>
<path fill="#5C98EA" opacity="1.000000" stroke="none" 
	d="
M420.185974,360.902130 
	C422.825531,363.030304 425.465057,365.158447 427.746307,367.672943 
	C409.490662,378.321655 391.607452,388.608856 373.674225,398.808167 
	C371.867340,399.835785 369.757965,400.331543 367.788971,401.074097 
	C367.106537,398.009949 366.424103,394.945740 366.174194,391.445374 
	C368.130890,390.424316 369.764221,390.029449 371.162506,389.225647 
	C387.524109,379.819977 403.850372,370.352966 420.185974,360.902130 
z"/>
<path fill="#5C98EA" opacity="1.000000" stroke="none" 
	d="
M471.631592,402.117767 
	C470.846954,399.333374 470.062347,396.548981 469.672882,393.379700 
	C470.999695,392.682251 472.012939,392.513123 472.850830,392.036011 
	C489.196899,382.728149 505.540924,373.416107 521.810547,363.976013 
	C522.887939,363.350891 523.367004,361.694489 524.124329,360.517761 
	C526.456909,362.597076 528.789429,364.676392 531.076233,367.471161 
	C530.278442,368.996185 529.667114,370.047302 528.753479,370.579315 
	C513.757996,379.311127 498.766846,388.052460 483.669800,396.606506 
	C479.844330,398.774078 475.654175,400.298065 471.631592,402.117767 
z"/>
<path fill="#5CACF3" opacity="1.000000" stroke="none" 
	d="
M523.931396,360.263397 
	C523.367004,361.694489 522.887939,363.350891 521.810547,363.976013 
	C505.540924,373.416107 489.196899,382.728149 472.850830,392.036011 
	C472.012939,392.513123 470.999695,392.682251 469.719177,393.010315 
	C469.645111,388.850281 469.919861,384.674744 470.809814,380.216492 
	C473.122406,379.364319 474.967957,379.054657 476.493805,378.184387 
	C489.363342,370.844391 502.174347,363.401886 515.002991,355.990234 
	C517.914795,357.329834 520.826660,358.669434 523.931396,360.263397 
z"/>
<path fill="#5C8AE3" opacity="1.000000" stroke="none" 
	d="
M471.690277,402.480103 
	C475.654175,400.298065 479.844330,398.774078 483.669800,396.606506 
	C498.766846,388.052460 513.757996,379.311127 528.753479,370.579315 
	C529.667114,370.047302 530.278442,368.996185 531.086182,367.796448 
	C532.840820,369.854584 534.539795,372.302856 536.060181,375.442810 
	C526.202698,381.779633 516.485901,387.361023 506.855286,393.087585 
	C496.815521,399.057465 486.858978,405.167328 476.866028,411.216003 
	C475.160339,408.424805 473.454651,405.633606 471.690277,402.480103 
z"/>
<path fill="#5C8AE3" opacity="1.000000" stroke="none" 
	d="
M367.814514,401.437805 
	C369.757965,400.331543 371.867340,399.835785 373.674225,398.808167 
	C391.607452,388.608856 409.490662,378.321655 427.755371,368.024261 
	C429.675995,370.308533 431.229279,372.627808 432.394836,375.383728 
	C431.197388,375.988159 430.276764,375.962189 429.594360,376.352539 
	C418.241943,382.847260 406.950592,389.449127 395.579407,395.910461 
	C387.688751,400.394135 379.697388,404.700562 371.750977,409.086182 
	C370.447357,406.657959 369.143707,404.229736 367.814514,401.437805 
z"/>
<path fill="#5CACF3" opacity="1.000000" stroke="none" 
	d="
M317.155518,360.513672 
	C302.588257,369.528748 287.839203,378.298615 273.021088,386.950256 
	C269.771362,388.847626 266.275818,390.323914 262.529419,392.004272 
	C262.561401,387.853577 262.957428,383.692749 264.000732,379.254211 
	C266.085083,378.654327 267.693481,378.641327 268.929688,377.956512 
	C274.301025,374.980835 279.521545,371.733978 284.876282,368.726959 
	C292.548340,364.418610 300.289551,360.233398 308.001221,355.995605 
	C310.983765,357.405701 313.966339,358.815826 317.155518,360.513672 
z"/>
<path fill="#5CACF3" opacity="1.000000" stroke="none" 
	d="
M420.087128,360.567566 
	C403.850372,370.352966 387.524109,379.819977 371.162506,389.225647 
	C369.764221,390.029449 368.130890,390.424316 366.217468,391.022247 
	C366.098022,387.589630 366.367798,384.143951 367.062195,380.174561 
	C367.621796,379.060699 367.756836,378.470551 367.891846,377.880402 
	C367.891846,377.880402 367.858246,377.963654 368.249146,377.960754 
	C369.773529,377.788086 371.083893,377.929443 372.013641,377.401031 
	C382.953705,371.183838 393.866119,364.915833 404.689911,358.499451 
	C405.785797,357.849792 406.256836,356.146179 407.017853,354.931671 
	C407.467346,354.965698 407.916870,354.999725 408.731140,355.431641 
	C409.745728,355.848053 410.395569,355.866608 411.045380,355.885132 
	C414.026337,357.334442 417.007324,358.783722 420.087128,360.567566 
z"/>
<path fill="#5C7EDE" opacity="1.000000" stroke="none" 
	d="
M371.816833,409.428009 
	C379.697388,404.700562 387.688751,400.394135 395.579407,395.910461 
	C406.950592,389.449127 418.241943,382.847260 429.594360,376.352539 
	C430.276764,375.962189 431.197388,375.988159 432.455261,375.755646 
	C433.663391,378.203400 434.423401,380.715912 434.702545,383.655853 
	C428.819031,386.886993 423.301819,389.492401 418.036102,392.533234 
	C404.614716,400.283844 391.305603,408.228912 377.951538,416.096130 
	C375.928558,413.987366 373.905609,411.878632 371.816833,409.428009 
z"/>
<path fill="#5C79DC" opacity="1.000000" stroke="none" 
	d="
M476.962463,411.529236 
	C486.858978,405.167328 496.815521,399.057465 506.855286,393.087585 
	C516.485901,387.361023 526.202698,381.779633 536.048950,375.783936 
	C537.149841,378.034729 538.083496,380.635986 538.630981,383.659271 
	C527.901611,390.024811 517.483765,395.843323 507.238495,401.951324 
	C499.014893,406.854065 491.000580,412.107849 482.893372,417.205872 
	C480.948578,415.418091 479.003754,413.630280 476.962463,411.529236 
z"/>
<path fill="#5C62D1" opacity="1.000000" stroke="none" 
	d="
M280.106934,420.472229 
	C282.630981,417.898956 285.107208,415.202881 288.120575,413.409119 
	C300.490814,406.045380 313.001373,398.915405 325.525848,391.815063 
	C327.192017,390.870544 329.234192,390.589325 331.486450,390.004089 
	C331.607391,393.086029 331.344086,396.164764 330.568115,399.675354 
	C327.482941,401.197174 324.776642,402.050720 322.360687,403.417419 
	C310.830597,409.940002 299.379272,416.601837 287.899933,423.214172 
	C285.368652,422.397552 282.837372,421.580933 280.106934,420.472229 
z"/>
<path fill="#5C6AD5" opacity="1.000000" stroke="none" 
	d="
M378.123474,416.382141 
	C391.305603,408.228912 404.614716,400.283844 418.036102,392.533234 
	C423.301819,389.492401 428.819031,386.886993 434.585693,384.044373 
	C434.975403,386.709106 435.001068,389.412750 434.955933,392.562164 
	C430.727661,394.942627 426.388336,396.566193 422.446594,398.869965 
	C410.317688,405.958740 398.340881,413.307800 386.117035,420.843201 
	C383.384521,419.643188 380.839966,418.155670 378.123474,416.382141 
z"/>
<path fill="#5C6AD5" opacity="1.000000" stroke="none" 
	d="
M483.080688,417.480774 
	C491.000580,412.107849 499.014893,406.854065 507.238495,401.951324 
	C517.483765,395.843323 527.901611,390.024811 538.593201,384.043396 
	C539.102417,386.770020 539.263428,389.534546 539.268433,392.646362 
	C531.135498,397.305084 523.118103,401.543854 515.194458,405.951141 
	C508.981781,409.406738 502.811951,412.953583 496.780548,416.712555 
	C494.925690,417.868530 493.589996,419.857544 491.968323,421.826904 
	C489.036011,420.710968 486.152008,419.233337 483.080688,417.480774 
z"/>
<path fill="#5CB7F9" opacity="1.000000" stroke="none" 
	d="
M514.706116,355.754120 
	C502.174347,363.401886 489.363342,370.844391 476.493805,378.184387 
	C474.967957,379.054657 473.122406,379.364319 471.014282,379.895325 
	C474.560028,361.388611 494.224609,350.462799 514.706116,355.754120 
z"/>
<path fill="#5CB7F9" opacity="1.000000" stroke="none" 
	d="
M307.703064,355.761292 
	C300.289551,360.233398 292.548340,364.418610 284.876282,368.726959 
	C279.521545,371.733978 274.301025,374.980835 268.929688,377.956512 
	C267.693481,378.641327 266.085083,378.654327 264.244598,378.958740 
	C267.594879,362.607391 285.969971,351.322510 303.547516,354.574890 
	C304.847534,354.815460 306.119751,355.206085 307.703064,355.761292 
z"/>
<path fill="#5D5CCE" opacity="1.000000" stroke="none" 
	d="
M288.216187,423.422424 
	C299.379272,416.601837 310.830597,409.940002 322.360687,403.417419 
	C324.776642,402.050720 327.482941,401.197174 330.405151,400.055786 
	C325.073853,418.207916 307.489136,428.047699 288.216187,423.422424 
z"/>
<path fill="#5CB7F9" opacity="1.000000" stroke="none" 
	d="
M406.664368,354.733459 
	C406.256836,356.146179 405.785797,357.849792 404.689911,358.499451 
	C393.866119,364.915833 382.953705,371.183838 372.013641,377.401031 
	C371.083893,377.929443 369.773529,377.788086 368.233826,377.918579 
	C370.963623,364.767548 384.874756,354.395874 399.875153,354.075226 
	C402.016144,354.029419 404.165436,354.372253 406.664368,354.733459 
z"/>
<path fill="#5CB7F9" opacity="1.000000" stroke="none" 
	d="
M410.837402,355.694489 
	C410.395569,355.866608 409.745728,355.848053 409.046692,355.556824 
	C409.541412,355.357361 410.085419,355.430603 410.837402,355.694489 
z"/>
<path fill="#5CB7F9" opacity="1.000000" stroke="none" 
	d="
M367.637054,378.057892 
	C367.756836,378.470551 367.621796,379.060699 367.231049,379.829163 
	C367.110962,379.416748 367.246613,378.826080 367.637054,378.057892 
z"/>
</svg>